<?xml version="1.0" encoding="UTF-8" standalone="no"?>
<svg
   xmlns:dc="http://purl.org/dc/elements/1.1/"
   xmlns:cc="http://creativecommons.org/ns#"
   xmlns:rdf="http://www.w3.org/1999/02/22-rdf-syntax-ns#"
   xmlns:svg="http://www.w3.org/2000/svg"
   xmlns="http://www.w3.org/2000/svg"
   xmlns:sodipodi="http://sodipodi.sourceforge.net/DTD/sodipodi-0.dtd"
   xmlns:inkscape="http://www.inkscape.org/namespaces/inkscape"
   version="1.1"
   id="Layer_1"
   x="0px"
   y="0px"
   viewBox="0 0 508 508"
   style="enable-background:new 0 0 508 508;"
   xml:space="preserve"
   width="512px"
   height="512px"
   class=""
   sodipodi:docname="logo-ink.svg"
   inkscape:version="0.92.1 r15371"><metadata
     id="metadata23"><rdf:RDF><cc:Work
         rdf:about=""><dc:format>image/svg+xml</dc:format><dc:type
           rdf:resource="http://purl.org/dc/dcmitype/StillImage" /><dc:title /></cc:Work></rdf:RDF></metadata><defs
     id="defs21" /><sodipodi:namedview
     pagecolor="#ffffff"
     bordercolor="#666666"
     borderopacity="1"
     objecttolerance="10"
     gridtolerance="10"
     guidetolerance="10"
     inkscape:pageopacity="0"
     inkscape:pageshadow="2"
     inkscape:window-width="1366"
     inkscape:window-height="705"
     id="namedview19"
     showgrid="false"
     inkscape:zoom="0.46093751"
     inkscape:cx="598.53238"
     inkscape:cy="272.10549"
     inkscape:window-x="-8"
     inkscape:window-y="-8"
     inkscape:window-maximized="1"
     inkscape:current-layer="g16" /><g
     id="g16"><rect
       style="fill:#75c637;fill-opacity:0.98989898;stroke:none;stroke-width:2.22349215;stroke-miterlimit:4;stroke-dasharray:none;stroke-opacity:1"
       id="rect4489"
       width="508.37384"
       height="508.37384"
       x="1.5220773"
       y="1.1482655" /><path
       style="fill:#ffffff;stroke-width:1.17786038"
       d="m 321.10018,197.56463 c -16.49005,8.00945 -33.45123,17.43233 -49.47014,27.7975 12.7209,-3.76915 24.97064,-6.59602 37.69154,-9.42287 -20.2592,30.62436 -43.34526,60.30644 -70.20048,87.16166 -15.54776,-34.39352 -17.90348,-78.20993 -6.59602,-120.61291 6.12487,12.24976 12.72089,24.02836 19.78805,35.33582 -5.18258,-19.31691 -8.95173,-39.57611 -11.30746,-59.83531 v 0 c 5.65374,-14.13432 12.72089,-27.7975 21.20149,-40.98953 0.47115,13.66317 1.41343,26.85521 3.29801,40.04725 2.35572,-21.20149 7.06717,-41.93184 12.72089,-62.66218 8.48059,-9.89402 17.90348,-19.316907 27.79751,-27.326358 -1.41344,14.605469 -1.88458,29.210938 -1.41344,43.345268 5.18259,-18.84577 11.30746,-37.691538 18.84577,-56.537304 23.55721,-15.547757 48.99899,-25.441784 73.96964,-28.268649 -6.59602,24.499496 -15.07662,48.056703 -24.4995,71.142763 -16.0189,8.48059 -31.56666,18.37462 -46.64328,28.7398 13.19204,-4.71144 25.91293,-8.48059 39.10497,-11.30746 -4.71144,9.89403 -9.42289,20.25919 -14.13432,29.68208 v 0 c -15.07662,10.36517 -30.15323,22.14377 -44.7587,34.86466 11.30746,-5.18258 22.14378,-9.89402 33.45124,-14.13432 -1.88458,3.298 -3.76916,6.59601 -5.65374,10.36517 -3.76915,7.5383 -8.48059,15.07661 -13.19203,22.61492 z"
       data-original="#FFFFFF"
       id="path6"
       inkscape:connector-curvature="0" /><path
       style="fill:#e6e9ee;stroke-width:1.17786038"
       d="m 382.34892,38.317909 c -9.42288,8.480595 -23.08607,20.730342 -37.69153,37.220387 -14.60547,16.018904 -30.15323,36.278094 -44.7587,58.893014 -7.06716,11.30746 -14.13432,23.55721 -20.73034,36.2781 -6.59601,12.7209 -12.24975,25.44179 -17.90347,39.10497 -5.18259,13.19203 -9.89403,26.85521 -14.13433,40.5184 -4.2403,13.66318 -7.5383,27.32635 -9.89403,40.51839 -4.71144,23.08606 -7.06716,45.70098 -8.48059,65.48904 0,3.29801 1.88457,6.12487 4.71144,7.53831 v 0 c 1.88457,-21.20149 5.18258,-45.70099 11.30746,-71.14278 2.82686,-13.19203 6.59602,-26.38407 10.83631,-39.5761 4.2403,-13.19204 8.95174,-26.38407 14.13433,-39.57611 5.18258,-13.19204 10.83632,-25.91293 17.43234,-38.63382 6.12486,-12.24975 12.72088,-24.49949 19.78805,-35.80695 13.66318,-22.61492 28.26865,-42.87412 41.93182,-59.83531 13.66318,-16.490045 25.91293,-30.153226 34.86467,-39.104965 8.95174,-8.951738 14.13433,-14.134324 14.13433,-14.134324 0,-0.471144 -6.12488,3.769153 -15.54776,12.249748 z"
       data-original="#E6E9EE"
       id="path8"
       inkscape:connector-curvature="0" /><path
       style="fill:#ffffff;stroke-width:1.17786038;fill-opacity:1"
       d="M 294.71611,334.19644 H 189.65096 c -29.81084,13.33777 -34.94055,13.59428 -46.08729,34.83371 -11.385,21.69348 13.66319,76.43416 25.82809,100.8558 4.2403,2.82686 9.42289,4.71144 14.13433,4.71144 h 116.84375 c 5.18259,0 9.89403,-1.88458 14.13432,-4.71144 17.86955,-30.12628 35.33582,-78.89168 23.29269,-104.02503 -9.06846,-17.3913 -10.10065,-17.53016 -43.08074,-31.66448 z"
       data-original="#324A5E"
       class=""
       id="path10"
       inkscape:connector-curvature="0"
       sodipodi:nodetypes="ccscssccc" /><rect
       x="189.65097"
       y="315.82181"
       style="fill:#ffffff;stroke-width:1.17786038;fill-opacity:1"
       width="105.06514"
       height="18.374622"
       data-original="#2B3B4E"
       class="active-path"
       id="rect12" /><path
       style="fill:#ffffff;stroke-width:1.17786038;fill-opacity:1"
       d="M 299.89869,315.82181 H 183.99723 c -1.41343,0 -2.35572,-0.94229 -2.35572,-2.35572 v -19.31691 c 0,-1.41344 0.94229,-2.35572 2.35572,-2.35572 h 115.90146 c 1.41343,0 2.35573,0.94228 2.35573,2.35572 v 19.78805 c 0,0.94229 -0.9423,1.88458 -2.35573,1.88458 z"
       data-original="#324A5E"
       class=""
       id="path14"
       inkscape:connector-curvature="0" /><rect
       style="fill:#75c637;fill-opacity:0.98823529;stroke:none;stroke-width:1.65887737;stroke-linejoin:round;stroke-miterlimit:4;stroke-dasharray:none;stroke-dashoffset:0;stroke-opacity:1;paint-order:normal"
       id="rect4522"
       width="714.15344"
       height="159.8869"
       x="671.8385"
       y="184.81926"
       inkscape:export-filename="C:\_work\watermark\ink-ad.png"
       inkscape:export-xdpi="124.58"
       inkscape:export-ydpi="124.58" /><rect
       style="fill:#75c637;fill-opacity:0.98989898;stroke:none;stroke-width:0.41178399;stroke-miterlimit:4;stroke-dasharray:none;stroke-opacity:1"
       id="rect4489-2"
       width="94.149292"
       height="94.149292"
       x="690.64429"
       y="198.1599"
       inkscape:export-filename="C:\_work\watermark\ink-ad.png"
       inkscape:export-xdpi="124.58"
       inkscape:export-ydpi="124.58" /><g
       id="g4533"
       transform="matrix(1.3111752,0,0,1.3111752,715.5213,1164.788)"
       inkscape:export-filename="C:\_work\watermark\ink-ad.png"
       inkscape:export-xdpi="124.58"
       inkscape:export-ydpi="124.58"><path
         inkscape:export-ydpi="124.58"
         inkscape:export-xdpi="124.58"
         inkscape:export-filename="C:\_work\watermark\logo-with-text.png"
         inkscape:connector-curvature="0"
         id="path6-9"
         data-original="#FFFFFF"
         d="m 26.840739,-696.11728 c -3.053908,1.48333 -6.195066,3.22842 -9.16172,5.14802 2.355872,-0.69804 4.624487,-1.22157 6.980359,-1.74509 -3.751943,5.67154 -8.027411,11.16857 -13.000916,16.14207 -2.8794002,-6.36957 -3.3156712,-14.48424 -1.221563,-22.33714 1.134307,2.26862 2.355868,4.44998 3.664686,6.54409 -0.959797,-3.57744 -1.657833,-7.32938 -2.094107,-11.08132 v 0 c 1.047054,-2.61763 2.355871,-5.14801 3.926452,-7.59114 0.08725,2.53038 0.261763,4.97351 0.610782,7.41663 0.43627,-3.92645 1.308818,-7.76565 2.35587,-11.60484 1.57058,-1.83235 3.31567,-3.57744 5.148014,-5.06077 -0.261765,2.70489 -0.349018,5.40978 -0.261765,8.02742 0.9598,-3.49018 2.094106,-6.98036 3.490181,-10.47053 4.362723,-2.87941 9.074464,-4.71175 13.698953,-5.23528 -1.221563,4.53724 -2.792146,8.89996 -4.537234,13.17543 -2.966653,1.57058 -5.84605,3.40292 -8.638194,5.32252 2.443126,-0.87254 4.798996,-1.57058 7.242122,-2.09411 -0.872546,1.83235 -1.745093,3.75195 -2.617633,5.49704 v 0 c -2.792146,1.91959 -5.584287,4.10095 -8.289175,6.45683 2.094107,-0.9598 4.100961,-1.83235 6.195068,-2.61764 -0.349021,0.61078 -0.698039,1.22156 -1.047058,1.9196 -0.698033,1.39607 -1.570577,2.79214 -2.443122,4.18821 z"
         style="fill:#ffffff;stroke-width:0.21813619" /><path
         inkscape:export-ydpi="124.58"
         inkscape:export-xdpi="124.58"
         inkscape:export-filename="C:\_work\watermark\logo-with-text.png"
         inkscape:connector-curvature="0"
         id="path8-7"
         data-original="#E6E9EE"
         d="m 38.183819,-725.60929 c -1.745088,1.57058 -4.275471,3.8392 -6.980356,6.89311 -2.704889,2.96665 -5.584289,6.71859 -8.289176,10.90681 -1.308818,2.0941 -2.617633,4.36272 -3.839196,6.71859 -1.221561,2.35587 -2.268618,4.71174 -3.315668,7.24212 -0.9598,2.44313 -1.832345,4.9735 -2.617635,7.50388 -0.785292,2.53039 -1.396071,5.06076 -1.832345,7.50389 -0.872544,4.27547 -1.308816,8.46368 -1.5705802,12.12837 0,0.61078 0.3490172,1.13431 0.8725452,1.39608 v 0 c 0.349016,-3.92646 0.959798,-8.46369 2.094105,-13.17543 0.523528,-2.44313 1.221565,-4.88625 2.006854,-7.32938 0.785291,-2.44312 1.657835,-4.88625 2.617634,-7.32937 0.9598,-2.44313 2.006855,-4.799 3.228418,-7.15487 1.134305,-2.26862 2.355868,-4.53723 3.664687,-6.63134 2.530379,-4.18822 5.235266,-7.94016 7.765646,-11.08132 2.530378,-3.0539 4.798996,-5.58429 6.45683,-7.24212 1.657837,-1.65784 2.617637,-2.61763 2.617637,-2.61763 0,-0.0873 -1.13431,0.69804 -2.8794,2.26861 z"
         style="fill:#e6e9ee;stroke-width:0.21813619" /><path
         inkscape:export-ydpi="124.58"
         inkscape:export-xdpi="124.58"
         inkscape:export-filename="C:\_work\watermark\logo-with-text.png"
         sodipodi:nodetypes="ccscssccc"
         inkscape:connector-curvature="0"
         id="path10-9"
         class=""
         data-original="#324A5E"
         d="M 21.954489,-670.81347 H 2.4967418 c -5.520878,2.47011 -6.470885,2.51761 -8.535227,6.45109 -2.108467,4.01757 2.530382,14.15538 4.783285,18.67819 0.78528995,0.52352 1.74508997,0.87254 2.617634,0.87254 H 23.001543 c 0.9598,0 1.832344,-0.34902 2.617631,-0.87254 3.309389,-5.5793 6.544089,-14.6105 4.313738,-19.26512 -1.679451,-3.22082 -1.87061,-3.24653 -7.978423,-5.86416 z"
         style="fill:#ffffff;fill-opacity:1;stroke-width:0.21813619" /><rect
         inkscape:export-ydpi="124.58"
         inkscape:export-xdpi="124.58"
         inkscape:export-filename="C:\_work\watermark\logo-with-text.png"
         id="rect12-9"
         class="active-path"
         data-original="#2B3B4E"
         height="3.4029245"
         width="19.457748"
         style="fill:#ffffff;fill-opacity:1;stroke-width:0.21813619"
         y="-674.21637"
         x="2.4967468" /><path
         inkscape:export-ydpi="124.58"
         inkscape:export-xdpi="124.58"
         inkscape:export-filename="C:\_work\watermark\logo-with-text.png"
         inkscape:connector-curvature="0"
         id="path14-9"
         class=""
         data-original="#324A5E"
         d="M 22.914287,-674.2164 H 1.4496888 c -0.261764,0 -0.436273,-0.17452 -0.436273,-0.43627 v -3.57744 c 0,-0.26176 0.174509,-0.43627 0.436273,-0.43627 H 22.914287 c 0.261764,0 0.436275,0.17451 0.436275,0.43627 v 3.66469 c 0,0.1745 -0.174511,0.34902 -0.436275,0.34902 z"
         style="fill:#ffffff;fill-opacity:1;stroke-width:0.21813619" /></g><text
       xml:space="preserve"
       style="font-style:normal;font-variant:normal;font-weight:normal;font-stretch:normal;font-size:31.92144012px;line-height:1.25;font-family:'Abril Fatface';-inkscape-font-specification:'Abril Fatface';letter-spacing:0px;word-spacing:0px;fill:#ffffff;fill-opacity:1;stroke:none;stroke-width:1.84162164"
       x="801.42889"
       y="280.52115"
       id="text4520"
       inkscape:export-filename="C:\_work\watermark\ink-ad.png"
       inkscape:export-xdpi="124.58"
       inkscape:export-ydpi="124.58"><tspan
         sodipodi:role="line"
         id="tspan4518"
         x="801.42889"
         y="280.52115"
         style="font-size:74.08333588px;fill:#ffffff;fill-opacity:1;stroke-width:1.84162164">Watermark.ink</tspan></text>
<text
       xml:space="preserve"
       style="font-style:normal;font-variant:normal;font-weight:normal;font-stretch:normal;font-size:33.77349472px;line-height:1.25;font-family:'Abril Fatface';-inkscape-font-specification:'Abril Fatface';letter-spacing:0px;word-spacing:0px;fill:#ffffff;fill-opacity:1;stroke:none;stroke-width:1.94847071"
       x="873.64197"
       y="324.74326"
       id="text4526"
       inkscape:export-filename="C:\_work\watermark\ink-ad.png"
       inkscape:export-xdpi="124.58"
       inkscape:export-ydpi="124.58"><tspan
         sodipodi:role="line"
         id="tspan4524"
         x="873.64197"
         y="324.74326"
         style="font-style:normal;font-variant:normal;font-weight:normal;font-stretch:normal;font-family:Calibri;-inkscape-font-specification:Calibri;fill:#ffffff;fill-opacity:1;stroke-width:1.94847071">Online Photo Watermarker</tspan></text>
</g></svg>